<svg width="32" height="32" viewBox="0 0 32 32" xmlns="http://www.w3.org/2000/svg">
  <defs>
    <linearGradient id="fortressGradient" x1="0%" y1="0%" x2="100%" y2="100%">
      <stop offset="0%" style="stop-color:#58a6ff;stop-opacity:1" />
      <stop offset="100%" style="stop-color:#79c0ff;stop-opacity:1" />
    </linearGradient>
    <linearGradient id="shieldGradient" x1="0%" y1="0%" x2="100%" y2="100%">
      <stop offset="0%" style="stop-color:#3fb950;stop-opacity:1" />
      <stop offset="100%" style="stop-color:#56d364;stop-opacity:1" />
    </linearGradient>
  </defs>
  
  <!-- Background circle -->
  <circle cx="16" cy="16" r="15" fill="#0d1117" stroke="#30363d" stroke-width="1"/>
  
  <!-- Main fortress structure -->
  <rect x="8" y="18" width="16" height="10" fill="url(#fortressGradient)" rx="1"/>
  
  <!-- Fortress towers -->
  <rect x="6" y="14" width="4" height="14" fill="url(#fortressGradient)" rx="1"/>
  <rect x="22" y="14" width="4" height="14" fill="url(#fortressGradient)" rx="1"/>
  <rect x="14" y="12" width="4" height="16" fill="url(#fortressGradient)" rx="1"/>
  
  <!-- Tower battlements -->
  <rect x="6" y="12" width="1" height="3" fill="url(#fortressGradient)"/>
  <rect x="8" y="12" width="1" height="3" fill="url(#fortressGradient)"/>
  <rect x="9" y="12" width="1" height="3" fill="url(#fortressGradient)"/>
  
  <rect x="22" y="12" width="1" height="3" fill="url(#fortressGradient)"/>
  <rect x="24" y="12" width="1" height="3" fill="url(#fortressGradient)"/>
  <rect x="25" y="12" width="1" height="3" fill="url(#fortressGradient)"/>
  
  <rect x="14" y="10" width="1" height="3" fill="url(#fortressGradient)"/>
  <rect x="16" y="10" width="1" height="3" fill="url(#fortressGradient)"/>
  <rect x="17" y="10" width="1" height="3" fill="url(#fortressGradient)"/>
  
  <!-- Central shield/protection symbol -->
  <path d="M16 6 L12 8 L12 14 Q12 16 16 18 Q20 16 20 14 L20 8 Z" fill="url(#shieldGradient)" opacity="0.9"/>
  
  <!-- Shield checkmark (coverage symbol) -->
  <path d="M14 12 L15.5 13.5 L18 11" stroke="#0d1117" stroke-width="1.5" fill="none" stroke-linecap="round" stroke-linejoin="round"/>
  
  <!-- Subtle glow effect -->
  <circle cx="16" cy="16" r="14" fill="none" stroke="url(#fortressGradient)" stroke-width="0.5" opacity="0.3"/>
</svg>